<svg id="Layer_1" data-name="Layer 1" xmlns="http://www.w3.org/2000/svg" viewBox="0 0 1921 128"><defs><style>.cls-1{fill:#d9d9d9;}</style></defs><title>wave_section</title><path class="cls-1" d="M.5,41V166H1921V38c-26.88,0-40.54,3.58-53.75,7-13,3.42-26.49,7-53,7s-40-3.53-53-7c-13.21-3.47-26.87-7-53.75-7s-40.53,3.58-53.74,7c-13,3.42-26.5,7-53,7s-40-3.53-53-7c-13.21-3.47-26.87-7-53.74-7s-40.54,3.58-53.75,7c-13,3.42-26.49,7-53,7s-39.95-3.53-53-7c-13.21-3.47-26.87-7-53.74-7s-40.53,3.58-53.74,7c-13,3.42-26.5,7-53,7s-40-3.53-53-7c-13.21-3.47-26.87-7-53.74-7s-40.53,3.58-53.74,7c-13,3.42-26.5,7-53,7s-40-3.53-53-7c-13.21-3.47-26.87-7-53.74-7s-40.54,3.58-53.74,7c-13,3.42-26.5,7-53,7s-39.95-3.53-53-7c-13.2-3.47-26.86-7-53.74-7s-40.53,3.58-53.74,7c-13,3.42-26.49,7-53,7s-40-3.53-53-7c-13.21-3.47-26.87-7-53.74-7s-40.53,3.58-53.74,7c-13,3.42-26.49,7-53,7s-40-3.53-53-7c-13.21-3.47-26.87-7-53.74-7s-40.53,3.58-53.74,7c-13,3.42-26.49,7-53,7s-40-3.53-53-7S27,38,.5,38H0v3Z" transform="translate(0 -38)"/></svg>